<svg version="1.1" id="Layer_1" xmlns="http://www.w3.org/2000/svg" x="0" y="0" viewBox="0 0 468.7 517.2" style="enable-background:new 0 0 468.7 517.2" xml:space="preserve"><style>.st0{fill:#444}</style><path class="st0" d="M520.5 455c-4.2.7-7.8.7-9.9-1.4l-13.7 13.7c3.9 3.9 3.9 7.5 1.7 9.7l-3.7 3.7 39.8 39.8 71-71-39.7-39.9-45.7 45.7.2-.3zm7.1 15.6-12.8 12.8-5.7-5.7 14.2-14.2 4.6 4.6-.3 2.5zm46.2-1.9c-8.1 8.1-21.2 8.2-29.2.2-8-8-7.6-20.8.5-28.9 8.1-8.1 20.9-8.5 28.9-.5s7.9 21.1-.2 29.2zm-6.6-22.4c4.3 4.3 4.3 11.3-.1 15.7-4.4 4.4-11.4 4.4-15.7.1-4.3-4.3-4.3-11.3.1-15.7 4.3-4.4 11.4-4.4 15.7-.1zm30.3-79.1 27.4 62.7-19 8.1-7.7-7.7 13.3-5.6-19.3-44.1-64.4 28.8 9.1 17.8-7.8 7.8-14.8-30.7 83.2-37.1z" transform="translate(-156.157 -367.215)"/><path class="st0" d="M158.6 564.2c2.8-2.9 7.7-3.3 10.9-.7 2.8 2.1 4 6.2 2.7 9.5-.7 2.1-2.5 3.4-3.9 5l-1.5 1.5 4.7 4.7-2.3 2.3-10.8-10.8c-2.6-2.8-2.8-7.4-.5-10.4.1-.5.4-.8.7-1.1zm9.3 9.3c1.7-1.6 2-4.5.6-6.4-1.3-2-4.2-2.7-6.3-1.6-2.1 1-3.3 3.6-2.6 5.9.4 1.6 1.8 2.6 2.9 3.7l1.9 1.9c1.2-1.1 2.3-2.3 3.5-3.5zM165.4 557.2l2.3-2.3 11.7 11.7-2.3 2.3-11.7-11.7zM181.9 555.4l7.7 1 2.8-2.8L182 552l-1.7-9.6-2.8 2.8 1.2 6.7-.1.1-6.7-1.2-2.8 2.8 9.6 1.7 1.6 10.4 2.8-2.8-1.2-7.5z" transform="matrix(4.12904 0 0 4.12904 -644.78 -1903.844)"/><path class="st0" d="M185.9 536.7c2.3-2.4 6-3.1 9-1.8 1.4.5 2.5 1.7 3.6 2.7l4.9 4.9-6.2 6.2c-2.5 2.3-6.4 2.7-9.3 1.1-2.6-1.3-4.4-4.2-4.4-7.1-.1-2.2.8-4.4 2.4-6zm12.9 5.9-3.9-3.9c-1.9-1.6-4.9-1.4-6.6.3-1.7 1.6-2 4.5-.6 6.4 1.3 1.9 3.9 2.7 6 1.8 1.3-.5 2.2-1.7 3.2-2.7.6-.6 1.2-1.3 1.9-1.9zM198.7 524c2.7-2.8 7.4-3.2 10.5-.9 3 2.1 4.4 6.3 3 9.7-1.2 3.4-4.9 5.7-8.5 5.3-2.2-.2-4.1-1.3-5.6-2.9l-10-10 2.3-2.3 4.7 4.7c1.3-1.2 2.5-2.4 3.6-3.6zm9.4 9.4c1.8-1.7 1.9-4.8.3-6.7-1.5-2-4.5-2.4-6.6-1-1.1.8-2 1.9-2.9 2.8l-1.4 1.4c1.3 1.3 2.6 2.7 4 3.9 1.9 1.5 4.9 1.3 6.6-.4zM211.2 511.4c2.3-2.4 6-3.1 9-1.8 1.4.5 2.5 1.7 3.6 2.7l4.9 4.9-6.2 6.2c-2.5 2.3-6.4 2.7-9.3 1.1-2.6-1.3-4.4-4.2-4.4-7.1-.1-2.2.8-4.4 2.4-6zm12.9 5.9-3.9-3.9c-1.9-1.6-4.9-1.4-6.6.3-1.7 1.6-2 4.5-.6 6.4 1.3 1.9 3.9 2.7 6 1.8 1.3-.5 2.2-1.7 3.2-2.7.5-.6 1.2-1.3 1.9-1.9zM229.8 492.9l10.8 10.8c2.7 2.9 2.9 7.9.2 10.9-.5.6-1.1 1.1-1.6 1.6l-2.3-2.3c1-1 2.1-1.9 2.5-3.4.5-1.7-.1-3.6-1.3-4.9-.4 3.7-3.7 6.8-7.4 7.1-2.6.3-5.3-.8-7-2.8l-5.4-5.4 2.3-2.3c2.1 2 4.1 4.1 6.2 6.2 1.8 1.6 4.8 1.5 6.5-.2 1.9-1.6 2.2-4.6.7-6.5-.9-1.1-2-2.1-3-3.1l-3.4-3.4c.6-.7 1.4-1.5 2.2-2.3z" transform="matrix(4.12904 0 0 4.12904 -644.78 -1903.844)"/></svg>