<svg version="1.1" id="Layer_1" xmlns="http://www.w3.org/2000/svg" x="0" y="0" viewBox="0 0 591.6 557.5" style="enable-background:new 0 0 591.6 557.5" xml:space="preserve"><style>.st0{fill:#444}</style><path class="st0" d="M229.9 165.1c-8.2-5.8-14.1-11.6-14.1-18.9h-45.4c0 13-5.9 18.9-13.2 18.9H145v132h235.7v-132H229h.9zm-14.1 37.7h-42.5V184h47.1v15.2l-4.6 3.6zm79.8 73.4c-26.9 0-48.8-21.6-48.8-48.1s21.9-47 48.8-47 48.8 20.5 48.8 47c-.1 26.6-21.9 48.1-48.8 48.1zm26.2-48.1c0 14.3-11.8 25.9-26.2 25.9-14.5 0-26.2-11.6-26.2-25.9 0-14.3 11.8-25.9 26.2-25.9 14.4 0 26.2 11.6 26.2 25.9zm181.5-80.9-58.7 149.6-45-18.1v-25.5l31.3 12.8 41.3-105.2-154.7-59.2-14.3 44.7h-25.8l26.4-75.4 199.5 76.3z"/><path class="st0" d="M143.7 466.9c4-.1 7.8 3.2 8.2 7.2.5 3.5-1.6 7.2-4.8 8.6-2 1-4.2.7-6.3.7h-2.1v6.6h-3.3v-15.3c.1-3.8 3.2-7.2 7-7.7.5-.1.9-.1 1.3-.1zm0 13.2c2.4.1 4.6-1.8 4.9-4.1.5-2.4-1-4.9-3.3-5.6-2.2-.8-4.9.2-6 2.3-.8 1.4-.5 3.1-.6 4.7v2.7h5zM153.5 466.8h3.2v16.5h-3.2v-16.5zM166.4 477.2h.1l4.6 6.1h4l-6.2-8.5 5.5-8h-4l-3.9 5.7h-.1l-3.9-5.7h-4l5.5 8-6.2 8.5h4l4.6-6.1z" transform="matrix(4.12904 0 0 4.12904 -488.623 -1536.63)"/><path class="st0" d="M182.5 466.8c3.3-.1 6.4 2.1 7.6 5.1.6 1.4.6 3 .6 4.5v6.9H182c-3.4-.2-6.4-2.6-7.4-5.8-.9-2.8-.1-6 1.9-8.1 1.5-1.6 3.7-2.6 6-2.6zm4.9 13.2v-5.5c-.2-2.5-2.5-4.5-4.9-4.5-2.3-.1-4.6 1.8-4.9 4.1-.4 2.2.8 4.7 3 5.5 1.3.6 2.8.3 4.1.4h2.7zM200.5 466.9c3.9-.1 7.5 2.9 8.1 6.8.7 3.6-1.3 7.5-4.7 9-3.3 1.6-7.5.6-9.8-2.3-1.4-1.7-2-3.8-1.9-6v-14.1h3.3v6.6h5zm0 13.2c2.5.1 4.8-2 4.9-4.5.3-2.5-1.5-4.9-3.9-5.4-1.3-.2-2.7-.1-4.1-.1h-1.9v5.6c.3 2.5 2.6 4.5 5 4.4zM218.2 466.8c3.3-.1 6.4 2.1 7.6 5.1.6 1.4.6 3 .6 4.5v6.9h-8.7c-3.4-.2-6.4-2.6-7.4-5.8-.9-2.8-.1-6 1.9-8.1 1.6-1.6 3.8-2.6 6-2.6zm5 13.2v-5.5c-.2-2.5-2.5-4.5-4.9-4.5-2.3-.1-4.6 1.8-4.9 4.1-.4 2.2.8 4.7 3 5.5 1.3.6 2.8.3 4.1.4h2.7zM244.5 466.9v15.3c-.1 4-3.6 7.6-7.6 7.8h-2.3v-3.3c1.4 0 2.9.1 4.1-.7 1.5-.9 2.5-2.6 2.5-4.4-2.9 2.3-7.4 2.2-10.2-.2-2.1-1.7-3.2-4.3-3-6.9v-7.7h3.3v8.7c.2 2.4 2.3 4.4 4.7 4.5 2.4.2 4.8-1.7 5.1-4.1.1-1.4 0-2.9.1-4.3v-4.8c1.1.1 2.2.1 3.3.1z" transform="matrix(4.12904 0 0 4.12904 -488.623 -1536.63)"/></svg>