<?xml version="1.0" encoding="utf-8"?>
<!-- Generator: Adobe Illustrator 24.3.0, SVG Export Plug-In . SVG Version: 6.00 Build 0)  -->
<svg version="1.1" id="Layer_1" xmlns="http://www.w3.org/2000/svg" xmlns:xlink="http://www.w3.org/1999/xlink" x="0px" y="0px"
	 viewBox="0 0 152.6 96.4" style="enable-background:new 0 0 152.6 96.4;" xml:space="preserve">
<style type="text/css">
	.st0{fill:#444444;}
</style>
<g transform="translate(-156.15726,-367.21451)">
	<path class="st0" d="M192.3,407.4c-3.5-2.5-6-5-6-8H167c0,5.5-2.5,8-5.6,8h-5.2v56.2h100.4v-56.2h-64.6H192.3z M186.3,423.4h-18.1
		v-8h20.1v6.5L186.3,423.4z M220.3,454.7c-11.5,0-20.8-9.2-20.8-20.5s9.3-20,20.8-20c11.5,0,20.8,8.7,20.8,20
		C241.1,445.5,231.8,454.7,220.3,454.7z M231.5,434.2c0,6.1-5,11-11.2,11c-6.2,0-11.2-4.9-11.2-11c0-6.1,5-11,11.2-11
		C226.5,423.2,231.5,428.1,231.5,434.2L231.5,434.2z M308.8,399.7l-25,63.7l-19.2-7.7v-10.9l13.3,5.5l17.6-44.8l-65.9-25.2l-6.1,19
		h-11l11.2-32.1L308.8,399.7L308.8,399.7z"/>
</g>
</svg>
