<?xml version="1.0" encoding="utf-8"?>
<svg version="1.1" id="Layer_1" xmlns="http://www.w3.org/2000/svg" xmlns:xlink="http://www.w3.org/1999/xlink" x="0px" y="0px"
	 viewBox="0 0 468.7 517.2" style="enable-background:new 0 0 468.7 517.2;" xml:space="preserve">
<style type="text/css">
	.st0{fill:#444444;}
</style>
<g transform="translate(-156.15726,-367.21451)">
	<path class="st0" d="M520.5,455c-4.2,0.7-7.8,0.7-9.9-1.4l-13.7,13.7c3.9,3.9,3.9,7.5,1.7,9.7l-3.7,3.7l39.8,39.8l71-71L566,409.6
		l-45.7,45.7L520.5,455z M527.6,470.6l-12.8,12.8l-5.7-5.7l14.2-14.2l4.6,4.6L527.6,470.6z M573.8,468.7c-8.1,8.1-21.2,8.2-29.2,0.2
		c-8-8-7.6-20.8,0.5-28.9c8.1-8.1,20.9-8.5,28.9-0.5C582,447.5,581.9,460.6,573.8,468.7z M567.2,446.3c4.3,4.3,4.3,11.3-0.1,15.7
		c-4.4,4.4-11.4,4.4-15.7,0.1c-4.3-4.3-4.3-11.3,0.1-15.7C555.8,442,562.9,442,567.2,446.3L567.2,446.3z M597.5,367.2l27.4,62.7
		l-19,8.1l-7.7-7.7l13.3-5.6l-19.3-44.1l-64.4,28.8l9.1,17.8l-7.8,7.8l-14.8-30.7L597.5,367.2L597.5,367.2z"/>
	<g transform="matrix(4.129044,0,0,4.129044,-488.6229,-1536.6294)">
		<path class="st0" d="M158.6,564.2c2.8-2.9,7.7-3.3,10.9-0.7c2.8,2.1,4,6.2,2.7,9.5c-0.7,2.1-2.5,3.4-3.9,5l-1.5,1.5l4.7,4.7
			l-2.3,2.3c-3.6-3.6-7.2-7.2-10.8-10.8c-2.6-2.8-2.8-7.4-0.5-10.4C158,564.8,158.3,564.5,158.6,564.2L158.6,564.2z M167.9,573.5
			c1.7-1.6,2-4.5,0.6-6.4c-1.3-2-4.2-2.7-6.3-1.6c-2.1,1-3.3,3.6-2.6,5.9c0.4,1.6,1.8,2.6,2.9,3.7l1.9,1.9
			C165.6,575.9,166.7,574.7,167.9,573.5L167.9,573.5z"/>
		<path class="st0" d="M165.4,557.2l2.3-2.3l11.7,11.7l-2.3,2.3L165.4,557.2z"/>
		<path class="st0" d="M181.9,555.4L181.9,555.4l7.7,1l2.8-2.8L182,552l-1.7-9.6l-2.8,2.8l1.2,6.7l-0.1,0.1l-6.7-1.2l-2.8,2.8
			l9.6,1.7l1.6,10.4l2.8-2.8L181.9,555.4z"/>
		<path class="st0" d="M185.9,536.7c2.3-2.4,6-3.1,9-1.8c1.4,0.5,2.5,1.7,3.6,2.7l4.9,4.9c-2.1,2.1-4.1,4.1-6.2,6.2
			c-2.5,2.3-6.4,2.7-9.3,1.1c-2.6-1.3-4.4-4.2-4.4-7.1C183.4,540.5,184.3,538.3,185.9,536.7L185.9,536.7z M198.8,542.6
			c-1.3-1.3-2.6-2.6-3.9-3.9c-1.9-1.6-4.9-1.4-6.6,0.3c-1.7,1.6-2,4.5-0.6,6.4c1.3,1.9,3.9,2.7,6,1.8c1.3-0.5,2.2-1.7,3.2-2.7
			C197.5,543.9,198.1,543.2,198.8,542.6L198.8,542.6z"/>
		<path class="st0" d="M198.7,524c2.7-2.8,7.4-3.2,10.5-0.9c3,2.1,4.4,6.3,3,9.7c-1.2,3.4-4.9,5.7-8.5,5.3c-2.2-0.2-4.1-1.3-5.6-2.9
			l-10-10l2.3-2.3l4.7,4.7C196.4,526.4,197.6,525.2,198.7,524L198.7,524z M208.1,533.4c1.8-1.7,1.9-4.8,0.3-6.7
			c-1.5-2-4.5-2.4-6.6-1c-1.1,0.8-2,1.9-2.9,2.8l-1.4,1.4c1.3,1.3,2.6,2.7,4,3.9C203.4,535.3,206.4,535.1,208.1,533.4z"/>
		<path class="st0" d="M211.2,511.4c2.3-2.4,6-3.1,9-1.8c1.4,0.5,2.5,1.7,3.6,2.7l4.9,4.9c-2.1,2.1-4.1,4.1-6.2,6.2
			c-2.5,2.3-6.4,2.7-9.3,1.1c-2.6-1.3-4.4-4.2-4.4-7.1C208.7,515.2,209.6,513,211.2,511.4L211.2,511.4z M224.1,517.3
			c-1.3-1.3-2.6-2.6-3.9-3.9c-1.9-1.6-4.9-1.4-6.6,0.3c-1.7,1.6-2,4.5-0.6,6.4c1.3,1.9,3.9,2.7,6,1.8c1.3-0.5,2.2-1.7,3.2-2.7
			C222.7,518.6,223.4,517.9,224.1,517.3L224.1,517.3z"/>
		<path class="st0" d="M229.8,492.9c3.6,3.6,7.2,7.2,10.8,10.8c2.7,2.9,2.9,7.9,0.2,10.9c-0.5,0.6-1.1,1.1-1.6,1.6l-2.3-2.3
			c1-1,2.1-1.9,2.5-3.4c0.5-1.7-0.1-3.6-1.3-4.9c-0.4,3.7-3.7,6.8-7.4,7.1c-2.6,0.3-5.3-0.8-7-2.8l-5.4-5.4l2.3-2.3
			c2.1,2,4.1,4.1,6.2,6.2c1.8,1.6,4.8,1.5,6.5-0.2c1.9-1.6,2.2-4.6,0.7-6.5c-0.9-1.1-2-2.1-3-3.1l-3.4-3.4
			C228.2,494.5,229,493.7,229.8,492.9L229.8,492.9z"/>
	</g>
</g>
</svg>
