<?xml version="1.0" encoding="utf-8"?>
<!-- Generator: Adobe Illustrator 24.3.0, SVG Export Plug-In . SVG Version: 6.00 Build 0)  -->
<svg version="1.1" id="Layer_1" xmlns="http://www.w3.org/2000/svg" xmlns:xlink="http://www.w3.org/1999/xlink" x="0px" y="0px"
	 viewBox="0 0 591.6 557.5" style="enable-background:new 0 0 591.6 557.5;" xml:space="preserve">
<style type="text/css">
	.st0{fill:#444444;}
</style>
<g>
	<path class="st0" d="M229.9,165.1c-8.2-5.8-14.1-11.6-14.1-18.9h-45.4c0,13-5.9,18.9-13.2,18.9H145v132h235.7v-132H229H229.9z
		 M215.8,202.8h-42.5V184h47.1v15.2L215.8,202.8z M295.6,276.2c-26.9,0-48.8-21.6-48.8-48.1s21.9-47,48.8-47
		c26.9,0,48.8,20.5,48.8,47C344.3,254.7,322.5,276.2,295.6,276.2z M321.8,228.1c0,14.3-11.8,25.9-26.2,25.9
		c-14.5,0-26.2-11.6-26.2-25.9c0-14.3,11.8-25.9,26.2-25.9C310,202.2,321.8,213.8,321.8,228.1L321.8,228.1z M503.3,147.2
		l-58.7,149.6l-45-18.1v-25.5l31.3,12.8l41.3-105.2l-154.7-59.2l-14.3,44.7h-25.8l26.4-75.4L503.3,147.2L503.3,147.2z"/>
</g>
<g transform="matrix(4.129044,0,0,4.129044,-488.6229,-1536.6294)">
	<path class="st0" d="M143.7,466.9c4-0.1,7.8,3.2,8.2,7.2c0.5,3.5-1.6,7.2-4.8,8.6c-2,1-4.2,0.7-6.3,0.7h-2.1v6.6h-3.3
		c0-5.1,0-10.2,0-15.3c0.1-3.8,3.2-7.2,7-7.7C142.9,466.9,143.3,466.9,143.7,466.9L143.7,466.9z M143.7,480.1
		c2.4,0.1,4.6-1.8,4.9-4.1c0.5-2.4-1-4.9-3.3-5.6c-2.2-0.8-4.9,0.2-6,2.3c-0.8,1.4-0.5,3.1-0.6,4.7v2.7
		C140.4,480.1,142.1,480.1,143.7,480.1L143.7,480.1z"/>
	<path class="st0" d="M153.5,466.8h3.2v16.5h-3.2V466.8z"/>
	<path class="st0" d="M166.4,477.2h0.1l4.6,6.1h4l-6.2-8.5l5.5-8h-4l-3.9,5.7h-0.1l-3.9-5.7h-4l5.5,8l-6.2,8.5h4L166.4,477.2z"/>
	<path class="st0" d="M182.5,466.8c3.3-0.1,6.4,2.1,7.6,5.1c0.6,1.4,0.6,3,0.6,4.5v6.9c-2.9,0-5.8,0-8.7,0c-3.4-0.2-6.4-2.6-7.4-5.8
		c-0.9-2.8-0.1-6,1.9-8.1C178,467.8,180.2,466.8,182.5,466.8L182.5,466.8z M187.4,480c0-1.8,0-3.7,0-5.5c-0.2-2.5-2.5-4.5-4.9-4.5
		c-2.3-0.1-4.6,1.8-4.9,4.1c-0.4,2.2,0.8,4.7,3,5.5c1.3,0.6,2.8,0.3,4.1,0.4C185.6,480,186.5,480,187.4,480L187.4,480z"/>
	<path class="st0" d="M200.5,466.9c3.9-0.1,7.5,2.9,8.1,6.8c0.7,3.6-1.3,7.5-4.7,9c-3.3,1.6-7.5,0.6-9.8-2.3c-1.4-1.7-2-3.8-1.9-6
		v-14.1h3.3v6.6C197.2,466.9,198.9,466.9,200.5,466.9L200.5,466.9z M200.5,480.1c2.5,0.1,4.8-2,4.9-4.5c0.3-2.5-1.5-4.9-3.9-5.4
		c-1.3-0.2-2.7-0.1-4.1-0.1h-1.9c0,1.9,0,3.7,0,5.6C195.8,478.2,198.1,480.2,200.5,480.1z"/>
	<path class="st0" d="M218.2,466.8c3.3-0.1,6.4,2.1,7.6,5.1c0.6,1.4,0.6,3,0.6,4.5v6.9c-2.9,0-5.8,0-8.7,0c-3.4-0.2-6.4-2.6-7.4-5.8
		c-0.9-2.8-0.1-6,1.9-8.1C213.8,467.8,216,466.8,218.2,466.8L218.2,466.8z M223.2,480c0-1.8,0-3.7,0-5.5c-0.2-2.5-2.5-4.5-4.9-4.5
		c-2.3-0.1-4.6,1.8-4.9,4.1c-0.4,2.2,0.8,4.7,3,5.5c1.3,0.6,2.8,0.3,4.1,0.4C221.4,480,222.3,480,223.2,480L223.2,480z"/>
	<path class="st0" d="M244.5,466.9c0,5.1,0,10.2,0,15.3c-0.1,4-3.6,7.6-7.6,7.8c-0.8,0-1.5,0-2.3,0v-3.3c1.4,0,2.9,0.1,4.1-0.7
		c1.5-0.9,2.5-2.6,2.5-4.4c-2.9,2.3-7.4,2.2-10.2-0.2c-2.1-1.7-3.2-4.3-3-6.9v-7.7h3.3c0,2.9,0,5.8,0,8.7c0.2,2.4,2.3,4.4,4.7,4.5
		c2.4,0.2,4.8-1.7,5.1-4.1c0.1-1.4,0-2.9,0.1-4.3v-4.8C242.3,466.9,243.4,466.9,244.5,466.9L244.5,466.9z"/>
</g>
</svg>
